<?xml version="1.0" encoding="utf-8"?>
<svg version="1.1" xmlns:xlink="http://www.w3.org/1999/xlink" width="17px" height="17px" viewBox="174 650  17 17" xmlns="http://www.w3.org/2000/svg">
  <path d="M 182.5 650  C 187.26 650  191 653.74  191 658.5  C 191 663.26  187.26 667  182.5 667  C 177.74 667  174 663.26  174 658.5  C 174 653.74  177.74 650  182.5 650  Z " fill-rule="nonzero" fill="#ffffff" stroke="none" />
  <path d="M 182.5 650.5  C 186.98 650.5  190.5 654.02  190.5 658.5  C 190.5 662.98  186.98 666.5  182.5 666.5  C 178.02 666.5  174.5 662.98  174.5 658.5  C 174.5 654.02  178.02 650.5  182.5 650.5  Z " stroke-width="1" stroke="#797979" fill="none" />
  <path d="M 182.5 662.75  C 180.12 662.75  178.25 660.88  178.25 658.5  C 178.25 656.12  180.12 654.25  182.5 654.25  C 184.88 654.25  186.75 656.12  186.75 658.5  C 186.75 660.88  184.88 662.75  182.5 662.75  " fill-rule="nonzero" fill="#797979" stroke="none" />
</svg>