<?xml version="1.0" encoding="utf-8"?>
<svg version="1.1" xmlns:xlink="http://www.w3.org/1999/xlink" width="17px" height="17px" viewBox="295 650  17 17" xmlns="http://www.w3.org/2000/svg">
  <path d="M 303.5 650  C 308.26 650  312 653.74  312 658.5  C 312 663.26  308.26 667  303.5 667  C 298.74 667  295 663.26  295 658.5  C 295 653.74  298.74 650  303.5 650  Z " fill-rule="nonzero" fill="#f0f0f0" stroke="none" />
  <path d="M 303.5 650.5  C 307.98 650.5  311.5 654.02  311.5 658.5  C 311.5 662.98  307.98 666.5  303.5 666.5  C 299.02 666.5  295.5 662.98  295.5 658.5  C 295.5 654.02  299.02 650.5  303.5 650.5  Z " stroke-width="1" stroke="#797979" fill="none" />
  <path d="M 303.5 662.75  C 301.12 662.75  299.25 660.88  299.25 658.5  C 299.25 656.12  301.12 654.25  303.5 654.25  C 305.88 654.25  307.75 656.12  307.75 658.5  C 307.75 660.88  305.88 662.75  303.5 662.75  " fill-rule="nonzero" fill="#797979" stroke="none" />
</svg>