<?xml version="1.0" encoding="utf-8"?>
<svg version="1.1" xmlns:xlink="http://www.w3.org/1999/xlink" width="42px" height="50px" xmlns="http://www.w3.org/2000/svg">
  <g transform="matrix(1 0 0 1 -191 -586 )">
    <path d="M 7.3849493487699 25  C 7.3849493487699 26.0616987179487  7.53690303907381 27.1935096153846  7.84081041968162 28.3954326923077  L 4.77134587554269 31.4302884615385  C 3.92040520984081 29.3669871794872  3.49493487698987 27.2235576923077  3.49493487698987 25  L 3.49493487698987 21.1538461538462  C 3.49493487698987 20.6330128205128  3.68740955137482 20.1822916666667  4.07235890014472 19.8016826923077  C 4.45730824891462 19.4210737179487  4.91316931982634 19.2307692307692  5.43994211287988 19.2307692307692  C 5.96671490593343 19.2307692307692  6.42257597684515 19.4210737179487  6.80752532561505 19.8016826923077  C 7.19247467438495 20.1822916666667  7.3849493487699 20.6330128205128  7.3849493487699 21.1538461538462  L 7.3849493487699 25  Z M 42 9.61538461538462  C 42 9.87580128205128  41.8986975397974 10.1061698717949  41.6960926193922 10.3064903846154  L 30.7250361794501 21.1538461538462  L 30.7250361794501 25  C 30.7250361794501 27.6442307692308  29.7727930535456 29.9078525641026  27.8683068017366 31.7908653846154  C 25.9638205499276 33.6738782051282  23.6743849493488 34.6153846153846  21 34.6153846153846  C 19.8856729377713 34.6153846153846  18.781476121563 34.4250801282051  17.6874095513748 34.0444711538462  L 14.7698986975398 36.9290865384615  C 16.7351664254703 37.9507211538462  18.8118668596237 38.4615384615385  21 38.4615384615385  C 24.7481910274964 38.4615384615385  27.9544138929088 37.1444310897436  30.6186685962373 34.5102163461538  C 33.2829232995658 31.8760016025641  34.6150506512301 28.7059294871795  34.6150506512301 25  L 34.6150506512301 21.1538461538462  C 34.6150506512301 20.6330128205128  34.8075253256151 20.1822916666667  35.192474674385 19.8016826923077  C 35.5774240231548 19.4210737179487  36.0332850940666 19.2307692307692  36.5600578871201 19.2307692307692  C 37.0868306801737 19.2307692307692  37.5426917510854 19.4210737179487  37.9276410998553 19.8016826923077  C 38.3125904486252 20.1822916666667  38.5050651230101 20.6330128205128  38.5050651230101 21.1538461538462  L 38.5050651230101 25  C 38.5050651230101 29.4270833333333  37.0108538350217 33.2782451923077  34.0224312590449 36.5534855769231  C 31.034008683068 39.8287259615385  27.3415340086831 41.7067307692308  22.94500723589 42.1875  L 22.94500723589 46.1538461538462  L 30.7250361794501 46.1538461538462  C 31.2518089725036 46.1538461538462  31.7076700434153 46.3441506410256  32.0926193921852 46.7247596153846  C 32.4775687409551 47.1053685897436  32.6700434153401 47.5560897435897  32.6700434153401 48.0769230769231  C 32.6700434153401 48.5977564102564  32.4775687409551 49.0484775641026  32.0926193921852 49.4290865384615  C 31.7076700434153 49.8096955128205  31.2518089725036 50  30.7250361794501 50  L 11.2749638205499 50  C 10.7481910274964 50  10.2923299565847 49.8096955128205  9.90738060781476 49.4290865384615  C 9.52243125904486 49.0484775641026  9.32995658465991 48.5977564102564  9.32995658465991 48.0769230769231  C 9.32995658465991 47.5560897435897  9.52243125904486 47.1053685897436  9.90738060781476 46.7247596153846  C 10.2923299565847 46.3441506410256  10.7481910274964 46.1538461538462  11.2749638205499 46.1538461538462  L 19.05499276411 46.1538461538462  L 19.05499276411 42.1875  C 16.5224312590449 41.9270833333333  14.1418234442836 41.1157852564103  11.9131693198263 39.7536057692308  L 4.19392185238784 47.3858173076923  C 3.99131693198263 47.5861378205128  3.75832127351664 47.6862980769231  3.49493487698987 47.6862980769231  C 3.2315484804631 47.6862980769231  2.99855282199711 47.5861378205128  2.7959479015919 47.3858173076923  L 0.303907380607815 44.921875  C 0.101302460202605 44.7215544871795  0 44.4911858974359  0 44.2307692307692  C 0 43.9703525641026  0.101302460202605 43.739983974359  0.303907380607815 43.5396634615385  L 37.8060781476122 6.46033653846154  C 38.0086830680174 6.26001602564102  38.2416787264834 6.15985576923077  38.5050651230101 6.15985576923077  C 38.7684515195369 6.15985576923077  39.0014471780029 6.26001602564102  39.2040520984081 6.46033653846154  L 41.6960926193922 8.92427884615384  C 41.8986975397974 9.12459935897436  42 9.35496794871795  42 9.61538461538462  Z M 26.6070911722142 1.77283653846154  C 28.2785817655572 2.95472756410256  29.4587554269175 4.47716346153846  30.1476121562952 6.34014423076923  L 12 25  L 12 9.61538461538462  C 11.2749638205499 6.97115384615384  12.2272069464544 4.70753205128205  14.1316931982634 2.82451923076923  C 16.0361794500724 0.941506410256415  18.3256150506512 0  21 0  C 23.0665701881331 0  24.9356005788712 0.590945512820518  26.6070911722142 1.77283653846154  Z " fill-rule="nonzero" fill="#000000" stroke="none" transform="matrix(1 0 0 1 191 586 )" />
  </g>
</svg>