<?xml version="1.0" encoding="utf-8"?>
<svg version="1.1" xmlns:xlink="http://www.w3.org/1999/xlink" width="32px" height="50px" xmlns="http://www.w3.org/2000/svg">
  <g transform="matrix(1 0 0 1 -201 -351 )">
    <path d="M 31.2083333333333 0.78125  C 31.7361111111111 1.30208333333333  32 1.9188596491228  32 2.63157894736842  L 32 47.3684210526316  C 32 48.0811403508772  31.7361111111111 48.6979166666667  31.2083333333333 49.21875  C 30.6805555555556 49.7395833333333  30.0555555555556 50  29.3333333333333 50  C 28.6111111111111 50  27.9861111111111 49.7395833333333  27.4583333333333 49.21875  L 13.5833333333333 35  L 2.66666666666667 35  C 1.94444444444444 35.5263157894737  1.31944444444444 35.265899122807  0.791666666666667 34.7450657894737  C 0.263888888888889 34.2242324561403  0 33.6074561403509  0 32.8947368421053  L 0 17.1052631578947  C 0 16.3925438596491  0.263888888888889 15.7757675438596  0.791666666666667 15.2549342105263  C 1.31944444444444 14.734100877193  1.94444444444444 14.4736842105263  2.66666666666667 15  L 13.5833333333333 15  L 27.4583333333333 0.78125  C 27.9861111111111 0.260416666666663  28.6111111111111 0  29.3333333333333 0  C 30.0555555555556 0  30.6805555555556 0.260416666666663  31.2083333333333 0.78125  Z " fill-rule="nonzero" fill="#000000" stroke="none" transform="matrix(1 0 0 1 201 351 )" />
  </g>
</svg>