<?xml version="1.0" encoding="utf-8"?>
<svg version="1.1" xmlns:xlink="http://www.w3.org/1999/xlink" width="377px" height="813px" xmlns="http://www.w3.org/2000/svg">
  <g transform="matrix(1 0 0 1 -30 -29 )">
    <path d="M 0.5 773.5  L 0.5 33.5  C 0.5 33.5  2.5 20.75  12.25 10.5  C 22 0.25  35 0  35 0  L 69 0  C 69 0  73 0.5  73.5 4.5  C 74 8.5  74.5 12  74.5 12  C 74.5 12  75.0838502326779 19.570061816911  81 24.75  C 87.945312048432 30.8310304823344  97 31  97 31  L 280.5 31  C 280.5 31  288.913881748179 31.2027704170325  296 24.75  C 301.54431624799 19.7012273721219  302 12  302 12  C 302 12  302.25 9  303 4.5  C 303.75 0  310.5 0  310.5 0  L 345 0  C 345 0  357.998942546649 2.56673702975854  366 12  C 373.930887581385 21.3505325488311  376.5 33.5  376.5 33.5  L 376.5 776  C 376.5 776  374.352568897654 791.151487213748  363.25 801  C 351.79084393911 811.164822756397  336 812.5  336 812.5  L 39.5 812.5  C 39.5 812.5  23.1339339818496 811.835590170287  12.25 801  C 1.24543045432949 790.044310099992  0.5 773.5  0.5 773.5  Z " fill-rule="nonzero" fill="#e2caca" stroke="none" transform="matrix(1 0 0 1 30 29 )" />
  </g>
</svg>