<?xml version="1.0" encoding="utf-8"?>
<svg version="1.1" xmlns:xlink="http://www.w3.org/1999/xlink" width="69px" height="79px" xmlns="http://www.w3.org/2000/svg">
  <g transform="matrix(1 0 0 1 -38 -147 )">
    <path d="M 21.1004464285714 3.13002232142857  C 25.3616071428571 1.04334077380952  29.828125 0  34.5 0  C 39.171875 0  43.6383928571429 1.04334077380952  47.8995535714286 3.13002232142857  C 52.1607142857143 5.21670386904762  55.8314732142857 8.0234375  58.9118303571429 11.5502232142857  C 61.9921875 15.0770089285714  64.4436383928572 19.2797619047619  66.2661830357143 24.1584821428571  C 68.0887276785714 29.0372023809524  69 34.1510416666667  69 39.5  C 69 44.819568452381  68.0951450892857 49.918712797619  66.2854352678571 54.7974330357143  C 64.4757254464286 59.6761532738095  62.0306919642857 63.87890625  58.9503348214286 67.4056919642857  C 55.8699776785714 70.9324776785714  52.19921875 73.7465587797619  47.9380580357143 75.8479352678571  C 43.6768973214286 77.9493117559524  39.1975446428571 79  34.5 79  C 29.8024553571429 79  25.3231026785714 77.9566592261905  21.0619419642857 75.8699776785714  C 16.80078125 73.7832961309524  13.1364397321429 70.9692150297619  10.0689174107143 67.427734375  C 7.00139508928571 63.8862537202381  4.55636160714286 59.6835007440476  2.73381696428571 54.8194754464286  C 0.911272321428571 49.9554501488095  0 44.8489583333333  0 39.5  C 0 34.1510416666667  0.911272321428571 29.0372023809524  2.73381696428571 24.1584821428571  C 4.55636160714286 19.2797619047619  7.0078125 15.0770089285714  10.0881696428571 11.5502232142857  C 13.1685267857143 8.0234375  16.8392857142857 5.21670386904762  21.1004464285714 3.13002232142857  Z M 46.5518973214286 45.1428571428571  C 52.7126116071429 45.1428571428571  56.6400669642857 49.9481026785714  58.3342633928571 59.55859375  C 62.1590401785714 53.5336681547619  64.0714285714286 46.8474702380952  64.0714285714286 39.5  C 64.0714285714286 34.9151785714286  63.2885044642857 30.5360863095238  61.72265625 26.3627232142857  C 60.1568080357143 22.1893601190476  58.0518973214286 18.5890997023809  55.4079241071429 15.5619419642857  C 52.7639508928572 12.5347842261905  49.6194196428571 10.1248139880952  45.9743303571429 8.33203125  C 42.3292410714286 6.53924851190476  38.5044642857143 5.64285714285714  34.5 5.64285714285714  C 30.4955357142857 5.64285714285714  26.6707589285714 6.53924851190476  23.0256696428571 8.33203125  C 19.3805803571429 10.1248139880952  16.2360491071429 12.5347842261905  13.5920758928571 15.5619419642857  C 10.9481026785714 18.5890997023809  8.84319196428572 22.1893601190476  7.27734375 26.3627232142857  C 5.71149553571429 30.5360863095238  4.92857142857143 34.9151785714286  4.92857142857143 39.5  C 4.92857142857143 46.8474702380952  6.84095982142857 53.5336681547619  10.6657366071429 59.55859375  C 12.3599330357143 49.9481026785714  16.2873883928571 45.1428571428571  22.4481026785714 45.1428571428571  C 25.8108258928571 48.9047619047619  29.828125 50.7857142857143  34.5 50.7857142857143  C 39.171875 50.7857142857143  43.1891741071429 48.9047619047619  46.5518973214286 45.1428571428571  Z M 44.9539620535714 43.0047433035714  C 47.841796875 39.6983816964286  49.2857142857143 35.7087053571429  49.2857142857143 31.0357142857143  C 49.2857142857143 26.3627232142857  47.841796875 22.373046875  44.9539620535714 19.0666852678571  C 42.0661272321429 15.7603236607143  38.5814732142857 14.1071428571429  34.5 14.1071428571429  C 30.4185267857143 14.1071428571429  26.9338727678571 15.7603236607143  24.0460379464286 19.0666852678571  C 21.158203125 22.373046875  19.7142857142857 26.3627232142857  19.7142857142857 31.0357142857143  C 19.7142857142857 35.7087053571429  21.158203125 39.6983816964286  24.0460379464286 43.0047433035714  C 26.9338727678571 46.3111049107143  30.4185267857143 47.9642857142857  34.5 47.9642857142857  C 38.5814732142857 47.9642857142857  42.0661272321429 46.3111049107143  44.9539620535714 43.0047433035714  Z " fill-rule="nonzero" fill="#000000" stroke="none" transform="matrix(1 0 0 1 38 147 )" />
  </g>
</svg>