<?xml version="1.0" encoding="utf-8"?>
<svg version="1.1" xmlns:xlink="http://www.w3.org/1999/xlink" width="29px" height="26px" xmlns="http://www.w3.org/2000/svg">
  <g transform="matrix(1 0 0 1 -288 -212 )">
    <path d="M 13.52466367713 19.5  L 14.4349775784753 19.5  L 16.3206278026906 17.3579545454545  L 13.8497757847534 14.5511363636364  L 11.9641255605381 16.6931818181818  L 11.9641255605381 17.7272727272727  L 13.52466367713 17.7272727272727  L 13.52466367713 19.5  Z M 21.5711883408072 6.81392045454546  C 21.7554185351271 6.60464015151515  21.7608370702541 6.40151515151515  21.5874439461883 6.20454545454546  C 21.4140508221226 6.00757575757576  21.2352391629297 6.01373106060606  21.0510089686099 6.22301136363636  L 15.3615470852018 12.6860795454545  C 15.1773168908819 12.8953598484848  15.1718983557549 13.0984848484848  15.3452914798206 13.2954545454545  C 15.5186846038864 13.4924242424242  15.6974962630792 13.4862689393939  15.8817264573991 13.2769886363636  L 21.5711883408072 6.81392045454546  Z M 22.5627802690583 16.6377840909091  C 22.7795216741405 16.7362689393939  22.8878923766816 16.9147727272727  22.8878923766816 17.1732954545455  L 22.8878923766816 20.6818181818182  C 22.8878923766816 22.1467803030303  22.4300261584454 23.399384469697  21.5142937219731 24.4396306818182  C 20.5985612855008 25.4798768939394  19.495889387145 26  18.2062780269058 26  L 4.68161434977578 26  C 3.39200298953662 26  2.28933109118087 25.4798768939394  1.37359865470852 24.4396306818182  C 0.457866218236173 23.399384469697  0 22.1467803030303  0 20.6818181818182  L 0 5.31818181818182  C 0 3.85321969696969  0.457866218236173 2.60061553030303  1.37359865470852 1.56036931818182  C 2.28933109118087 0.520123106060604  3.39200298953662 0  4.68161434977578 0  L 18.2062780269058 0  C 18.8890134529148 0  19.5229820627803 0.153882575757574  20.1081838565022 0.461647727272726  C 20.2707399103139 0.547821969696968  20.3682735426009 0.689393939393939  20.4007847533632 0.886363636363636  C 20.4332959641256 1.09564393939394  20.3845291479821 1.27414772727273  20.2544843049327 1.421875  L 19.4579596412556 2.32670454545455  C 19.3062406576981 2.49905303030303  19.1328475336323 2.54829545454546  18.9377802690583 2.47443181818182  C 18.6885276532138 2.40056818181818  18.4446935724963 2.36363636363636  18.2062780269058 2.36363636363636  L 4.68161434977578 2.36363636363636  C 3.96636771300448 2.36363636363636  3.35407324364724 2.6529356060606  2.84473094170404 3.23153409090909  C 2.33538863976084 3.81013257575757  2.08071748878924 4.50568181818182  2 5.31818181818182  L 2 20.6818181818182  C 2.08071748878924 21.4943181818182  2.33538863976084 22.1898674242424  2.84473094170404 22.7684659090909  C 3.35407324364724 23.3470643939394  3.96636771300448 23.6363636363636  4.68161434977578 23.6363636363636  L 18.2062780269058 23.6363636363636  C 18.9215246636771 23.6363636363636  19.5338191330344 23.3470643939394  20.0431614349776 22.7684659090909  C 20.5525037369208 22.1898674242424  20.8071748878924 21.4943181818182  20.8071748878924 20.6818181818182  L 20.8071748878924 18.3551136363636  C 20.8071748878924 18.1950757575758  20.8559417040359 18.0596590909091  20.9534753363229 17.9488636363636  L 21.9938340807175 16.7670454545455  C 22.1563901345291 16.5823863636364  22.3460388639761 16.5392992424242  22.5627802690583 16.6377840909091  Z M 10.4035874439462 15.9545454545455  L 21.3273542600897 3.54545454545455  L 26.0089686098655 8.86363636363637  L 15.085201793722 21.2727272727273  L 10.4035874439462 21.2727272727273  L 10.4035874439462 15.9545454545455  Z M 29 4.72727272727273  C 29 5.21969696969697  28.8482810164425 5.63825757575757  28.5448430493274 5.98295454545455  L 27.0493273542601 7.68181818181818  L 22.3677130044843 2.36363636363636  L 23.8632286995516 0.664772727272726  C 24.1666666666667 0.320075757575755  24.5351270553064 0.147727272727274  24.9686098654709 0.147727272727274  C 25.4020926756353 0.147727272727274  25.770553064275 0.320075757575755  26.0739910313901 0.664772727272726  L 28.5448430493274 3.47159090909091  C 28.8482810164425 3.81628787878787  29 4.23484848484848  29 4.72727272727273  Z " fill-rule="nonzero" fill="#000000" stroke="none" transform="matrix(1 0 0 1 288 212 )" />
  </g>
</svg>