<?xml version="1.0" encoding="utf-8"?>
<svg version="1.1" xmlns:xlink="http://www.w3.org/1999/xlink" width="38px" height="45px" xmlns="http://www.w3.org/2000/svg">
  <g transform="matrix(1 0 0 1 -254 -3 )">
    <path d="M 37.74765625 32.5341796875  C 37.9158854166667 34.0087890625  38 35.576171875  38 37.236328125  C 38 39.365234375  37.3815104166667 41.19140625  36.14453125 42.71484375  C 34.9075520833333 44.23828125  33.4182291666667 45  31.6765625 45  L 6.3234375 45  C 4.58177083333333 45  3.09244791666667 44.23828125  1.85546875 42.71484375  C 0.618489583333333 41.19140625  0 39.365234375  0 37.236328125  C 0 35.576171875  0.0841145833333335 34.0087890625  0.25234375 32.5341796875  C 0.420572916666667 31.0595703125  0.732291666666667 29.5751953125  1.1875 28.0810546875  C 1.64270833333333 26.5869140625  2.22161458333333 25.3076171875  2.92421875 24.2431640625  C 3.62682291666667 23.1787109375  4.55703125 22.3095703125  5.71484375 21.6357421875  C 6.87265625 20.9619140625  8.20364583333333 20.625  9.7078125 20.625  C 12.3005208333333 23.125  15.3979166666667 24.375  19 24.375  C 22.6020833333333 24.375  25.6994791666667 23.125  28.2921875 20.625  C 29.7963541666667 20.625  31.12734375 20.9619140625  32.28515625 21.6357421875  C 33.44296875 22.3095703125  34.3731770833333 23.1787109375  35.07578125 24.2431640625  C 35.7783854166667 25.3076171875  36.3572916666667 26.5869140625  36.8125 28.0810546875  C 37.2677083333333 29.5751953125  37.5794270833333 31.0595703125  37.74765625 32.5341796875  Z M 27.06015625 3.2958984375  C 29.28671875 5.4931640625  30.4 8.14453125  30.4 11.25  C 30.4 14.35546875  29.28671875 17.0068359375  27.06015625 19.2041015625  C 24.83359375 21.4013671875  22.146875 22.5  19 22.5  C 15.853125 22.5  13.16640625 21.4013671875  10.93984375 19.2041015625  C 8.71328125 17.0068359375  7.6 14.35546875  7.6 11.25  C 7.6 8.14453125  8.71328125 5.4931640625  10.93984375 3.2958984375  C 13.16640625 1.0986328125  15.853125 0  19 0  C 22.146875 0  24.83359375 1.0986328125  27.06015625 3.2958984375  Z " fill-rule="nonzero" fill="#f65314" stroke="none" transform="matrix(1 0 0 1 254 3 )" />
  </g>
</svg>